<?xml version="1.0" standalone="no"?><!DOCTYPE svg PUBLIC "-//W3C//DTD SVG 1.1//EN" "http://www.w3.org/Graphics/SVG/1.1/DTD/svg11.dtd"><svg t="1569820577938" class="icon" viewBox="0 0 1024 1024" version="1.1" xmlns="http://www.w3.org/2000/svg" p-id="1776" xmlns:xlink="http://www.w3.org/1999/xlink" width="200" height="200"><defs><style type="text/css"></style></defs><path d="M851.05948053 463.74326933L577.02690133 178.75675627c-17.0361376-17.71208213-39.80418027-27.4373792-64.19786346-27.4373792-24.39498027 0-47.163024 9.72529813-64.16802347 27.4373792L174.59729707 463.74326933c-28.28198613 29.4496448-24.64148587 54.8591904-19.9552832 65.4732064 3.33301653 7.55864213 14.563296 28.26641707 46.97749546 28.26641707l40.15707307 0 0 219.249936c0 49.7733888 35.77835307 96.6432 86.6428544 96.6432l116.6451904 0L445.06462613 641.34542187c0-24.8866944-3.76375253-38.7429088 21.6769312-38.7429088l92.189232 0c25.43938667 0 21.66006507 13.85751147 21.66006507 38.7429088l0 232.031904 116.6451904 0c50.84893227 0 86.6285824-46.8698112 86.6285824-96.6432L783.8646272 557.4828928l40.17264107 0c32.41419947 0 43.65875093-20.70777493 46.97749546-28.26641707C875.7009664 518.60116267 879.34016853 493.19161707 851.05948053 463.74326933L851.05948053 463.74326933zM824.0359712 512.34900053" p-id="1777" fill="#ffcacb"></path></svg>