<?xml version="1.0" standalone="no"?><!DOCTYPE svg PUBLIC "-//W3C//DTD SVG 1.1//EN" "http://www.w3.org/Graphics/SVG/1.1/DTD/svg11.dtd"><svg t="1559546639880" class="icon" style="" viewBox="0 0 1024 1024" version="1.1" xmlns="http://www.w3.org/2000/svg" p-id="5723" xmlns:xlink="http://www.w3.org/1999/xlink" width="200" height="200"><defs><style type="text/css"></style></defs><path d="M779.727 498.451V318.237c0-69.427-28.863-132.993-75.055-179.457-45.964-45.942-109.302-74.555-179.214-74.555h-26.652c-70.177 0-133.742 28.613-179.707 74.555-45.964 46.464-74.312 110.029-74.312 179.457v180.214C218.363 543.65 203.7 595.976 203.7 651.733c0 85.074 34.725 162.068 90.217 217.575 56.007 56.007 133.25 90.467 218.067 90.467 83.878 0 160.152-33.733 215.886-88.498l1.984-1.969c55.719-55.507 90.444-132.5 90.444-217.575 0.001-55.757-14.911-108.083-40.571-153.282zM313.23 318.237c0-50.342 21.032-97.033 54.765-130.539 33.74-33.733 80.197-54.515 130.811-54.515h26.652c50.592 0 96.806 20.782 130.546 54.515 33.733 33.506 54.515 80.197 54.515 130.539v97.806c-53.773-45.495-123.23-72.366-198.535-72.366-75.524 0-144.982 26.872-198.754 72.366v-97.806z m367.949 502.691l-1.212 1.447c-43.011 42.533-102.676 68.466-167.983 68.466-65.981 0-125.889-26.901-168.922-69.912-43.775-43.048-70.404-103.213-70.404-169.195 0-45.964 12.709-88.028 34.733-124.2 0.47-1.242 1.439-2.454 1.939-3.9 9.77-14.67 20.782-28.363 33.263-41.094l0.47-0.493v0.493c43.033-43.503 102.941-70.427 168.922-70.427 66.277 0 125.942 26.924 169.195 69.934v0.493c12.459 12.731 23.721 26.424 33.491 41.094 0.523 1.447 1.242 2.658 1.712 3.9 22.251 36.172 34.983 78.713 34.983 124.2-0.002 65.981-26.903 126.145-70.187 169.194z m-128.1-303.187c-12.974-4.87-27.144-7.581-41.314-7.808-13.701 0-27.894 2.938-40.822 7.808-34.006 13.701-60.884 44.275-61.377 91.459v1.689c0 17.132 4.4 33.513 11.732 47.683 6.339 11.232 14.193 21.524 23.94 29.832v37.141c0 31.544 17.624 52.334 40.125 61.134 8.051 3.423 17.601 4.893 26.402 4.893 9.293 0 18.57-1.469 26.894-4.893 22.479-8.801 40.08-29.318 40.08-61.134v-37.141c9.543-8.309 18.093-18.601 23.963-29.832 7.331-14.42 11.732-30.802 11.732-47.683-0.001-48.403-27.145-79.448-61.355-93.148z m12.974 121.518c-4.423 9.043-11.285 16.382-19.585 22.024-6.112 4.62-9.3 11.482-8.778 18.071v46.192c0 12.004-6.862 19.563-14.693 22.993-3.423 1.219-7.331 2.211-11.012 2.211-3.65 0-7.558-0.992-10.989-2.211-8.301-3.431-14.663-10.989-14.663-22.993v-46.941c0-7.324-3.431-13.67-8.823-17.321-8.308-5.642-15.14-12.981-19.79-22.024-4.378-8.081-7.089-18.351-7.089-28.614v-1.219c0.5-27.629 16.162-45.472 35.202-53.303 8.331-3.181 17.624-4.893 26.152-4.893 9.073 0 17.624 1.712 25.705 4.893 20.04 7.831 35.702 26.152 35.702 54.765 0 10.27-2.712 20.289-7.339 28.37z" p-id="5724" fill=""></path></svg>