<?xml version="1.0" standalone="no"?><!DOCTYPE svg PUBLIC "-//W3C//DTD SVG 1.1//EN" "http://www.w3.org/Graphics/SVG/1.1/DTD/svg11.dtd"><svg t="1554859285177" class="icon" style="" viewBox="0 0 1280 1024" version="1.1" xmlns="http://www.w3.org/2000/svg" p-id="5677" xmlns:xlink="http://www.w3.org/1999/xlink" width="250" height="200"><defs><style type="text/css"></style></defs><path d="M96 0C43.06 0 0 43.06 0 96v128c0 17.68 14.32 32 32 32h160V96C192 43.06 148.94 0 96 0z m416 825.14V704h576V192c0-105.88-86.12-192-192-192H223.18C243.48 26.82 256 59.84 256 96v736c0 77.74 69.3 139.3 149.5 126.24C468.44 948 512 888.92 512 825.14zM576 768v64c0 105.86-86.12 192-192 192h672c123.72 0 224-100.28 224-224 0-17.68-14.32-32-32-32H576z" fill="#2c64e3" p-id="5678"></path></svg>