<?xml version="1.0" standalone="no"?><!DOCTYPE svg PUBLIC "-//W3C//DTD SVG 1.1//EN" "http://www.w3.org/Graphics/SVG/1.1/DTD/svg11.dtd"><svg t="1554858917585" class="icon" style="" viewBox="0 0 1024 1024" version="1.1" xmlns="http://www.w3.org/2000/svg" p-id="3062" xmlns:xlink="http://www.w3.org/1999/xlink" width="200" height="200"><defs><style type="text/css"></style></defs><path d="M960 320H64c-35.346 0-64-28.654-64-64V128c0-35.346 28.654-64 64-64h896c35.346 0 64 28.654 64 64v128c0 35.346-28.654 64-64 64z m-96-176c-26.51 0-48 21.49-48 48s21.49 48 48 48 48-21.49 48-48-21.49-48-48-48z m-128 0c-26.51 0-48 21.49-48 48s21.49 48 48 48 48-21.49 48-48-21.49-48-48-48z m224 496H64c-35.346 0-64-28.654-64-64v-128c0-35.346 28.654-64 64-64h896c35.346 0 64 28.654 64 64v128c0 35.346-28.654 64-64 64z m-96-176c-26.51 0-48 21.49-48 48s21.49 48 48 48 48-21.49 48-48-21.49-48-48-48z m-128 0c-26.51 0-48 21.49-48 48s21.49 48 48 48 48-21.49 48-48-21.49-48-48-48z m224 496H64c-35.346 0-64-28.654-64-64v-128c0-35.346 28.654-64 64-64h896c35.346 0 64 28.654 64 64v128c0 35.346-28.654 64-64 64z m-96-176c-26.51 0-48 21.49-48 48s21.49 48 48 48 48-21.49 48-48-21.49-48-48-48z m-128 0c-26.51 0-48 21.49-48 48s21.49 48 48 48 48-21.49 48-48-21.49-48-48-48z" fill="#2c64e3" p-id="3063"></path></svg>