<?xml version="1.0" standalone="no"?><!DOCTYPE svg PUBLIC "-//W3C//DTD SVG 1.1//EN" "http://www.w3.org/Graphics/SVG/1.1/DTD/svg11.dtd"><svg t="1559546574913" class="icon" style="" viewBox="0 0 1024 1024" version="1.1" xmlns="http://www.w3.org/2000/svg" p-id="2407" xmlns:xlink="http://www.w3.org/1999/xlink" width="200" height="200"><defs><style type="text/css"></style></defs><path d="M646.968 692.698h-251.517c-22.866 0-54.623-3.175-76.217 5.081-65.42 27.947-104.164 83.839-104.164 156.88v36.203h593.225v-17.783c0-60.338-24.771-125.123-73.677-158.152-8.892-6.352-19.689-12.068-29.852-17.149-10.797-4.447-10.797-1.905-22.23-5.081-10.797-2.541-24.136 0-35.569 0zM658.401 615.846c8.892 0.636 17.783 1.905 26.676 3.811 15.244 3.175 30.487 7.622 45.73 13.972 89.556 38.108 149.894 130.205 149.894 230.558v63.514c0 19.055-15.244 34.298-33.663 34.298h-669.442c-18.419 0-33.663-15.244-33.663-34.298v-63.514c0-100.353 59.703-191.813 149.894-230.558 22.866-9.528 47.001-15.244 72.406-17.783-88.285-52.717-142.908-151.165-142.908-255.963 0-163.867 130.84-297.248 288.991-297.248 159.421 0 288.991 134.651 288.991 297.248-0.636 104.799-54.623 202.611-142.908 255.963zM512.317 131.866c-88.92 0-170.854 55.893-205.151 140.366-10.797 27.311-16.514 57.163-16.514 87.65 0 90.825 53.988 174.030 135.921 209.598 55.258 24.136 117.502 23.5 172.124 0 82.568-35.569 135.922-118.772 135.922-209.598-0.636-124.488-99.718-228.017-222.301-228.017z" p-id="2408" fill=""></path></svg>