<?xml version="1.0" standalone="no"?><!DOCTYPE svg PUBLIC "-//W3C//DTD SVG 1.1//EN" "http://www.w3.org/Graphics/SVG/1.1/DTD/svg11.dtd"><svg t="1550825083539" class="icon" style="" viewBox="0 0 1024 1024" version="1.1" xmlns="http://www.w3.org/2000/svg" p-id="1103" xmlns:xlink="http://www.w3.org/1999/xlink" width="200" height="200"><defs><style type="text/css"></style></defs><path d="M512 32c-265.6 0-480 214.4-480 480s214.4 480 480 480c265.6 0 480-214.4 480-480s-214.4-480-480-480zM512 70.4c243.2 0 441.6 196.8 441.6 441.6 0 99.2-33.6 190.4-88 265.6-65.6-70.4-152-121.6-249.6-144 64-36.8 105.6-104 105.6-182.4 0-115.2-94.4-209.6-209.6-209.6-115.2 0-209.6 94.4-209.6 209.6 0 78.4 43.2 145.6 105.6 182.4-97.6 20.8-184 72-249.6 144-54.4-75.2-88-166.4-88-265.6 0-243.2 198.4-441.6 441.6-441.6zM512 622.4c-94.4 0-171.2-76.8-171.2-171.2s76.8-171.2 171.2-171.2c94.4 0 171.2 76.8 171.2 171.2 0 94.4-76.8 171.2-171.2 171.2 0 0 0 0 0 0 0 0 0 0 0 0zM512 953.6c-129.6 0-246.4-56-328-145.6 80-89.6 198.4-145.6 328-145.6 129.6 0 246.4 56 328 145.6-81.6 88-198.4 145.6-328 145.6z" p-id="1104" fill="#047bf8"></path></svg>